<svg id="Layer_1" data-name="Layer 1" xmlns="http://www.w3.org/2000/svg" viewBox="0 0 730.71 278.27"><defs><style>.cls-1{fill:#1d1d1b;}.cls-1,.cls-2{stroke:#2a306c;stroke-miterlimit:10;stroke-width:8.72px;}.cls-2{fill:#2e2e7c;}.cls-3{fill:#2a306c;}</style></defs><title>2020_long logo blue</title><path class="cls-1" d="M369.46,191.24v56.31h-7.92V191.24h-15.1v-6.89h38.08v6.89Z" transform="translate(-45.78 -124.55)"/><path class="cls-2" d="M406.92,219.4v28.15H399v-63.2h7.95V212.5h26V184.35h7.95v63.2h-7.95V219.4Z" transform="translate(-45.78 -124.55)"/><path class="cls-2" d="M493.18,184.35v6.89H466.74V212.5h26.44v6.9H466.74v21.26h26.44v6.89H458.79v-63.2Z" transform="translate(-45.78 -124.55)"/><path class="cls-1" d="M577.47,200.17l12.78,33,13.09-48.8h8l-17,63.2h-6.94l-12.65-33.29-12.69,33.29H555.2l-17-63.2h8.08l13.14,48.8,12.69-33Z" transform="translate(-45.78 -124.55)"/><path class="cls-1" d="M645.72,184.35l22.89,63.2h-8.26l-9.53-26.26H633.64l-9.7,26.26h-8.31l23.2-63.2Zm2.59,30.08-6-16.78-6.11,16.78Z" transform="translate(-45.78 -124.55)"/><path class="cls-1" d="M715.65,184.35H724l-22.72,63.2h-5.53L673,184.35h8.26L698.52,233Z" transform="translate(-45.78 -124.55)"/><path class="cls-1" d="M772.14,184.35v6.89H745.7V212.5h26.44v6.9H745.7v21.26h26.44v6.89h-34.4v-63.2Z" transform="translate(-45.78 -124.55)"/><path class="cls-1" d="M357.9,315.44v20.7H350v-63.2h18.1a22.12,22.12,0,0,1,13.23,6.41,20.15,20.15,0,0,1,6.18,14.8,20.48,20.48,0,0,1-6.28,15,20.94,20.94,0,0,1-15.46,6.31Zm0-35.57V308.5h7.82a13.27,13.27,0,0,0,9.67-4.1,14.75,14.75,0,0,0,0-20.45,13.32,13.32,0,0,0-9.67-4.08Z" transform="translate(-45.78 -124.55)"/><path class="cls-1" d="M427.31,315.44h-7.43v20.7h-7.94v-63.2H430a22.12,22.12,0,0,1,13.22,6.41,20.19,20.19,0,0,1,6.18,14.8,20.56,20.56,0,0,1-6.36,15q-4.21,4.27-7.47,5.06l14.19,21.91h-9.18Zm-7.43-35.57V308.5h7.83a13.26,13.26,0,0,0,9.66-4.1,14.72,14.72,0,0,0,0-20.45,13.32,13.32,0,0,0-9.66-4.08Z" transform="translate(-45.78 -124.55)"/><path class="cls-1" d="M528.32,281.63a32,32,0,0,1,0,45.66,33.23,33.23,0,0,1-46.65,0,32,32,0,0,1,0-45.66,33.19,33.19,0,0,1,46.65,0ZM505,279a23.86,23.86,0,0,0-17.48,7.42,25.8,25.8,0,0,0,0,36.13,24.47,24.47,0,0,0,35,0,25.8,25.8,0,0,0,0-36.13A23.9,23.9,0,0,0,505,279Z" transform="translate(-45.78 -124.55)"/><path class="cls-1" d="M569.81,335.53a11.54,11.54,0,0,1-3.7,8.67q-3.68,3.54-11.54,3.54v-6.58c2.84,0,4.73-.48,5.7-1.41a6.31,6.31,0,0,0,1.58-4.66V272.94h8Z" transform="translate(-45.78 -124.55)"/><path class="cls-1" d="M630.77,272.94v6.89H604.34v21.25h26.43V308H604.34v21.27h26.43v6.89H596.38v-63.2Z" transform="translate(-45.78 -124.55)"/><path class="cls-1" d="M706.37,322.21l5.54,4.93q-10.67,9.71-23.5,9.71a31.64,31.64,0,0,1-23.3-9.51,32.06,32.06,0,0,1,0-45.58,31.57,31.57,0,0,1,23.3-9.57q12.83,0,23.5,9.74l-5.54,4.92q-8.68-7.69-18-7.68A23.8,23.8,0,0,0,671,286.53a25.71,25.71,0,0,0,0,36,23.85,23.85,0,0,0,17.45,7.33Q697.68,329.9,706.37,322.21Z" transform="translate(-45.78 -124.55)"/><path class="cls-1" d="M755.75,279.83v56.31h-7.91V279.83H732.73v-6.89h38.09v6.89Z" transform="translate(-45.78 -124.55)"/><path class="cls-3" d="M301.12,340.21a139.13,139.13,0,1,1-34-188.79c-17.67-7.17-68.41-25.25-102.09-11.83,0,0,36.85,4.95,56.19,26.59,0,0-42.27-15.11-69.24-2.72,0,0,34.63,12,47.12,23.38a90.45,90.45,0,0,0-75.17,156.25l0,0a90.27,90.27,0,0,0,27.18,17,139.22,139.22,0,0,0,150-19.91Z" transform="translate(-45.78 -124.55)"/><path class="cls-3" d="M321.05,255.4a103.15,103.15,0,0,1-168,80.18A73.58,73.58,0,0,0,261.66,276.3c.71-65.32-71.4-77.93-76.73-78.78l-.31,0c31.44-5.42,50.59,1.43,50.59,1.43-11.09-17.73-38.58-28.15-38.58-28.15,20.32-2.57,51,9.09,51,9.09-8.42-17.07-32.14-27.57-32.14-27.57.8,0,1.61,0,2.42,0A103.15,103.15,0,0,1,321.05,255.4Z" transform="translate(-45.78 -124.55)"/></svg>