<svg id="Layer_1" data-name="Layer 1" xmlns="http://www.w3.org/2000/svg" viewBox="0 0 152.59 219.02"><defs><style>.cls-1,.cls-2,.cls-3{fill:#fff;}.cls-1,.cls-2{stroke:#fff;stroke-miterlimit:10;}.cls-2{stroke-width:3.06px;}</style></defs><title>Logo_square_White_2020</title><polygon class="cls-1" points="9.62 162.54 9.62 182.32 6.84 182.32 6.84 162.54 1.53 162.54 1.53 160.12 14.91 160.12 14.91 162.54 9.62 162.54"/><polygon class="cls-2" points="9.62 162.54 9.62 182.32 6.84 182.32 6.84 162.54 1.53 162.54 1.53 160.12 14.91 160.12 14.91 162.54 9.62 162.54"/><polygon class="cls-1" points="22.78 172.44 22.78 182.32 19.98 182.32 19.98 160.12 22.78 160.12 22.78 170.01 31.89 170.01 31.89 160.12 34.69 160.12 34.69 182.32 31.89 182.32 31.89 172.44 22.78 172.44"/><polygon class="cls-2" points="22.78 172.44 22.78 182.32 19.98 182.32 19.98 160.12 22.78 160.12 22.78 170.01 31.89 170.01 31.89 160.12 34.69 160.12 34.69 182.32 31.89 182.32 31.89 172.44 22.78 172.44"/><polygon class="cls-1" points="53.08 160.12 53.08 162.54 43.79 162.54 43.79 170.01 53.08 170.01 53.08 172.44 43.79 172.44 43.79 179.91 53.08 179.91 53.08 182.32 41 182.32 41 160.12 53.08 160.12"/><polygon class="cls-2" points="53.08 160.12 53.08 162.54 43.79 162.54 43.79 170.01 53.08 170.01 53.08 172.44 43.79 172.44 43.79 179.91 53.08 179.91 53.08 182.32 41 182.32 41 160.12 53.08 160.12"/><polygon class="cls-1" points="82.68 165.68 87.17 177.27 91.77 160.12 94.59 160.12 88.64 182.32 86.2 182.32 81.76 170.63 77.3 182.32 74.86 182.32 68.9 160.12 71.74 160.12 76.36 177.27 80.82 165.68 82.68 165.68"/><polygon class="cls-2" points="82.68 165.68 87.17 177.27 91.77 160.12 94.59 160.12 88.64 182.32 86.2 182.32 81.76 170.63 77.3 182.32 74.86 182.32 68.9 160.12 71.74 160.12 76.36 177.27 80.82 165.68 82.68 165.68"/><path class="cls-1" d="M220.73,219.65l8,22.21h-2.9l-3.35-9.23h-6l-3.4,9.23h-2.92l8.15-22.21Zm.91,10.57-2.13-5.89-2.14,5.89Z" transform="translate(-114.07 -59.53)"/><path class="cls-2" d="M220.73,219.65l8,22.21h-2.9l-3.35-9.23h-6l-3.4,9.23h-2.92l8.15-22.21Zm.91,10.57-2.13-5.89-2.14,5.89Z" transform="translate(-114.07 -59.53)"/><polygon class="cls-1" points="131.22 160.12 134.14 160.12 126.16 182.32 124.21 182.32 116.25 160.12 119.15 160.12 125.2 177.22 131.22 160.12"/><polygon class="cls-2" points="131.22 160.12 134.14 160.12 126.16 182.32 124.21 182.32 116.25 160.12 119.15 160.12 125.2 177.22 131.22 160.12"/><polygon class="cls-1" points="151.06 160.12 151.06 162.54 141.77 162.54 141.77 170.01 151.06 170.01 151.06 172.44 141.77 172.44 141.77 179.91 151.06 179.91 151.06 182.32 138.98 182.32 138.98 160.12 151.06 160.12"/><polygon class="cls-2" points="151.06 160.12 151.06 162.54 141.77 162.54 141.77 170.01 151.06 170.01 151.06 172.44 141.77 172.44 141.77 179.91 151.06 179.91 151.06 182.32 138.98 182.32 138.98 160.12 151.06 160.12"/><path class="cls-2" d="M120.09,265.67v7.27H117.3v-22.2h6.36A7.71,7.71,0,0,1,128.3,253a7.1,7.1,0,0,1,2.18,5.2,7.21,7.21,0,0,1-2.21,5.26,7.35,7.35,0,0,1-5.43,2.22Zm0-12.49v10.05h2.75a4.68,4.68,0,0,0,3.4-1.44,5.17,5.17,0,0,0,0-7.18,4.67,4.67,0,0,0-3.4-1.43Z" transform="translate(-114.07 -59.53)"/><path class="cls-2" d="M144.47,265.67h-2.6v7.27h-2.8v-22.2h6.36a7.71,7.71,0,0,1,4.64,2.25,7.06,7.06,0,0,1,2.18,5.2,7.2,7.2,0,0,1-2.24,5.27,6,6,0,0,1-2.62,1.78l5,7.7h-3.22Zm-2.6-12.49v10.05h2.74a4.68,4.68,0,0,0,3.4-1.44,5.17,5.17,0,0,0,0-7.18,4.67,4.67,0,0,0-3.4-1.43Z" transform="translate(-114.07 -59.53)"/><path class="cls-2" d="M180,253.79a11.25,11.25,0,0,1,0,16,11.66,11.66,0,0,1-16.38,0,11.25,11.25,0,0,1,0-16,11.66,11.66,0,0,1,16.38,0Zm-8.2-.93a8.36,8.36,0,0,0-6.14,2.61,9.07,9.07,0,0,0,0,12.69,8.6,8.6,0,0,0,12.3,0,9.07,9.07,0,0,0,0-12.69A8.39,8.39,0,0,0,171.75,252.86Z" transform="translate(-114.07 -59.53)"/><path class="cls-2" d="M194.53,272.72a4.06,4.06,0,0,1-1.3,3,5.69,5.69,0,0,1-4.06,1.24V274.7a3,3,0,0,0,2-.5,2.19,2.19,0,0,0,.55-1.63V250.74h2.8Z" transform="translate(-114.07 -59.53)"/><polygon class="cls-2" points="101.87 191.21 101.87 193.63 92.58 193.63 92.58 201.1 101.87 201.1 101.87 203.52 92.58 203.52 92.58 210.99 101.87 210.99 101.87 213.41 89.79 213.41 89.79 191.21 101.87 191.21"/><path class="cls-2" d="M242.5,268.05l1.94,1.73a12,12,0,0,1-8.25,3.41,11.17,11.17,0,0,1-8.19-3.34,11.26,11.26,0,0,1,0-16,11.11,11.11,0,0,1,8.19-3.36,12,12,0,0,1,8.25,3.42l-1.94,1.73a9.49,9.49,0,0,0-6.31-2.7,8.39,8.39,0,0,0-6.14,2.58,9.06,9.06,0,0,0,0,12.66,8.39,8.39,0,0,0,6.14,2.58A9.49,9.49,0,0,0,242.5,268.05Z" transform="translate(-114.07 -59.53)"/><polygon class="cls-2" points="145.77 193.63 145.77 213.41 142.99 213.41 142.99 193.63 137.68 193.63 137.68 191.21 151.06 191.21 151.06 193.63 145.77 193.63"/><path class="cls-3" d="M248.67,171.11a72,72,0,1,1-17.59-97.68c-9.14-3.71-35.39-13.06-52.82-6.12,0,0,19.07,2.56,29.07,13.76,0,0-21.87-7.82-35.82-1.41,0,0,17.92,6.22,24.38,12.1A46.8,46.8,0,0,0,157,172.6a0,0,0,0,0,0,0,46.46,46.46,0,0,0,14.06,8.8,72,72,0,0,0,77.6-10.3" transform="translate(-114.07 -59.53)"/><path class="cls-3" d="M264.35,127.07a55.38,55.38,0,0,1-90.22,43.05,39.51,39.51,0,0,0,58.34-31.83c.38-35.07-38.34-41.84-41.2-42.3l-.17,0c16.88-2.91,27.17.77,27.17.77-6-9.52-20.72-15.12-20.72-15.12,10.91-1.38,27.38,4.88,27.38,4.88-4.52-9.16-17.26-14.8-17.26-14.8H209a55.37,55.37,0,0,1,55.38,55.38" transform="translate(-114.07 -59.53)"/></svg>